<svg xmlns="http://www.w3.org/2000/svg" width="119.031" height="25.188" viewBox="0 0 119.031 25.188">
  <defs>
    <style>
      .cls-1 {
        fill-rule: evenodd;
      }
    </style>
  </defs>
  <path id="STORY" class="cls-1" d="M306.093,63.707a5.982,5.982,0,0,0-2.3,4.931,6.266,6.266,0,0,0,1.433,4.078,11.744,11.744,0,0,0,4.333,3.076q2.444,1.178,3.99,2.022a3.168,3.168,0,0,1,1.864,2.777,2.34,2.34,0,0,1-1.073,2,4.78,4.78,0,0,1-2.812.756q-3.481,0-7.418-3.269v4.676a17.553,17.553,0,0,0,3.8,1.784,13.961,13.961,0,0,0,4.052.519,8.77,8.77,0,0,0,5.9-1.942,6.387,6.387,0,0,0,2.276-5.106,6.666,6.666,0,0,0-1.336-4.184,11.657,11.657,0,0,0-4.359-3.164q-3.534-1.617-4.061-1.969-1.881-1.177-1.881-2.566a2.147,2.147,0,0,1,1.011-1.855,4.9,4.9,0,0,1,2.8-.694,13.513,13.513,0,0,1,6.767,2.3V63.663a14.357,14.357,0,0,0-6.908-1.793A9.466,9.466,0,0,0,306.093,63.707Zm16.383-1.521V65.9H331.2V86.744h4.746V65.9h8.719V62.187H322.476Zm31.342,1.327a12.084,12.084,0,0,0-4.8,4.614,12.351,12.351,0,0,0-1.74,6.346,12.155,12.155,0,0,0,6.6,10.934,15.526,15.526,0,0,0,13.887.026,12.409,12.409,0,0,0-.053-21.99A15.811,15.811,0,0,0,353.818,63.514Zm-0.563,6.557a7.509,7.509,0,0,1,3.068-3.023,9.9,9.9,0,0,1,8.982-.009,7.6,7.6,0,0,1,3.094,3.032,8.854,8.854,0,0,1,1.1,4.4,8.167,8.167,0,0,1-2.434,6.117,8.534,8.534,0,0,1-6.214,2.373,9.234,9.234,0,0,1-4.474-1.072,7.7,7.7,0,0,1-3.085-3.023,8.747,8.747,0,0,1-1.107-4.394A8.957,8.957,0,0,1,353.255,70.071Zm25.576-7.884V86.744h4.746V76.372H385.3a3.631,3.631,0,0,1,2.022.571,7.176,7.176,0,0,1,1.828,1.934,56.387,56.387,0,0,1,2.988,5.282,29.576,29.576,0,0,0,1.477,2.584h5.291q-1.091-1.687-3.34-6.152a22.131,22.131,0,0,0-2.268-3.674,7.116,7.116,0,0,0-2.092-1.723,7.157,7.157,0,0,0,3.208-2.452A6.228,6.228,0,0,0,395.5,69.1a6.333,6.333,0,0,0-2.179-4.992,8.234,8.234,0,0,0-5.643-1.916h-8.842Zm4.746,10.477V65.826h2.954a4.743,4.743,0,0,1,3,.835,3.019,3.019,0,0,1,1.055,2.522,3.213,3.213,0,0,1-1.063,2.549,4.291,4.291,0,0,1-2.927.932h-3.024Zm15.874-10.477,9.334,12.358v12.2h4.746V74.579l9.281-12.393h-5.643L411.158,70.4l-5.942-8.209h-5.765Z" transform="translate(-303.781 -61.875)"/>
</svg>
